<svg width="800" height="800" viewBox="0 0 800 800" fill="none" xmlns="http://www.w3.org/2000/svg">
<g clip-path="url(#clip0_1130_376)">
<rect width="800" height="800" fill="#279A6D"/>
<rect width="800" height="800" fill="#C0F5D2"/>
<rect width="800" height="800" fill="url(#paint0_linear_1130_376)"/>
<rect width="800" height="800" fill="url(#paint1_linear_1130_376)"/>
<rect width="800" height="800" fill="#0A5E43"/>
<g clip-path="url(#clip1_1130_376)">
<path d="M76.5625 481.609V320.236H105.868V385.476L165.167 320.236H201.341L142.272 384.324L202.944 481.609H166.998L121.208 406.916L105.868 423.745V481.609H76.5625Z" fill="white"/>
<path d="M244.491 484.375C234.723 484.375 226.709 482.838 220.451 479.764C214.193 476.537 209.538 472.31 206.485 467.085C203.433 461.86 201.906 456.096 201.906 449.795C201.906 439.191 206.027 430.584 214.27 423.975C222.512 417.367 234.875 414.063 251.36 414.063H280.208V411.296C280.208 403.458 277.995 397.695 273.568 394.006C269.142 390.318 263.647 388.473 257.084 388.473C251.131 388.473 245.941 389.933 241.515 392.853C237.089 395.62 234.341 399.769 233.273 405.302H204.654C205.417 397.003 208.164 389.78 212.896 383.632C217.78 377.485 224.038 372.797 231.67 369.57C239.302 366.189 247.849 364.498 257.313 364.498C273.492 364.498 286.237 368.571 295.548 376.716C304.858 384.862 309.514 396.388 309.514 411.296V481.609H284.558L281.81 463.166C278.452 469.314 273.721 474.385 267.615 478.381C261.663 482.377 253.955 484.375 244.491 484.375ZM251.131 461.322C259.526 461.322 266.013 458.555 270.592 453.023C275.323 447.49 278.3 440.651 279.521 432.505H254.565C246.781 432.505 241.21 433.965 237.852 436.885C234.494 439.652 232.815 443.11 232.815 447.259C232.815 451.716 234.494 455.174 237.852 457.633C241.21 460.092 245.636 461.322 251.131 461.322Z" fill="white"/>
<path d="M437.76 367.264V481.609H411.889L409.599 462.244C406.089 469.006 400.976 474.385 394.26 478.381C387.696 482.377 379.912 484.375 370.907 484.375C356.864 484.375 345.951 479.918 338.166 471.004C330.382 462.09 326.49 449.027 326.49 431.814V367.264H355.796V429.047C355.796 438.883 357.78 446.414 361.749 451.639C365.717 456.865 371.899 459.477 380.294 459.477C388.536 459.477 395.252 456.557 400.441 450.717C405.784 444.877 408.455 436.732 408.455 426.281V367.264H437.76Z" fill="white"/>
<path d="M505.392 484.375C495.318 484.375 486.466 482.761 478.834 479.534C471.202 476.153 465.097 471.542 460.518 465.702C455.939 459.862 453.191 453.099 452.276 445.415H481.81C482.726 449.872 485.168 453.714 489.137 456.942C493.258 460.015 498.524 461.552 504.934 461.552C511.345 461.552 516 460.246 518.9 457.633C521.953 455.02 523.48 452.024 523.48 448.642C523.48 443.724 521.343 440.42 517.069 438.73C512.795 436.885 506.842 435.118 499.211 433.427C494.326 432.351 489.366 431.045 484.329 429.508C479.292 427.971 474.636 426.05 470.363 423.745C466.242 421.286 462.884 418.212 460.289 414.524C457.694 410.681 456.397 405.994 456.397 400.461C456.397 390.318 460.365 381.788 468.302 374.872C476.392 367.956 487.687 364.498 502.187 364.498C515.619 364.498 526.303 367.649 534.24 373.95C542.33 380.251 547.138 388.934 548.664 400H520.961C519.282 391.547 512.948 387.321 501.958 387.321C496.463 387.321 492.189 388.397 489.137 390.548C486.237 392.7 484.787 395.389 484.787 398.617C484.787 401.998 487 404.688 491.426 406.685C495.853 408.683 501.729 410.528 509.056 412.218C516.993 414.063 524.243 416.137 530.806 418.443C537.522 420.594 542.864 423.899 546.833 428.356C550.801 432.659 552.785 438.883 552.785 447.029C552.938 454.098 551.106 460.476 547.29 466.163C543.475 471.849 537.98 476.306 530.806 479.534C523.632 482.761 515.161 484.375 505.392 484.375Z" fill="white"/>
<path d="M608.739 484.375C598.97 484.375 590.957 482.838 584.699 479.764C578.441 476.537 573.786 472.31 570.733 467.085C567.68 461.86 566.154 456.096 566.154 449.795C566.154 439.191 570.275 430.584 578.517 423.975C586.76 417.367 599.123 414.063 615.607 414.063H644.455V411.296C644.455 403.458 642.242 397.695 637.816 394.006C633.389 390.318 627.895 388.473 621.331 388.473C615.378 388.473 610.189 389.933 605.763 392.853C601.336 395.62 598.589 399.769 597.52 405.302H568.901C569.664 397.003 572.412 389.78 577.144 383.632C582.028 377.485 588.286 372.797 595.918 369.57C603.549 366.189 612.097 364.498 621.56 364.498C637.739 364.498 650.484 368.571 659.795 376.716C669.106 384.862 673.761 396.388 673.761 411.296V481.609H648.805L646.058 463.166C642.7 469.314 637.968 474.385 631.863 478.381C625.91 482.377 618.202 484.375 608.739 484.375ZM615.379 461.322C623.773 461.322 630.26 458.555 634.839 453.023C639.571 447.49 642.547 440.651 643.769 432.505H618.813C611.028 432.505 605.457 433.965 602.099 436.885C598.741 439.652 597.062 443.11 597.062 447.259C597.062 451.716 598.741 455.174 602.099 457.633C605.457 460.092 609.884 461.322 615.379 461.322Z" fill="white"/>
<path d="M692.569 481.609V315.625H721.875V481.609H692.569Z" fill="white"/>
</g>
</g>
<defs>
<linearGradient id="paint0_linear_1130_376" x1="67.742" y1="35.2" x2="643.699" y2="773.562" gradientUnits="userSpaceOnUse">
<stop stop-color="#C2D9ED"/>
<stop offset="1" stop-color="#C0F5D2" stop-opacity="0"/>
</linearGradient>
<linearGradient id="paint1_linear_1130_376" x1="533.594" y1="800" x2="385.783" y2="119.159" gradientUnits="userSpaceOnUse">
<stop stop-color="#7AD7A4"/>
<stop offset="1" stop-color="#C0F5D2" stop-opacity="0"/>
</linearGradient>
<clipPath id="clip0_1130_376">
<rect width="800" height="800" fill="white"/>
</clipPath>
<clipPath id="clip1_1130_376">
<rect width="645.312" height="168.75" fill="white" transform="translate(76.5625 315.625)"/>
</clipPath>
</defs>
</svg>
