<?xml version="1.0" encoding="UTF-8"?>
<svg id="icon-arrows-up-down" xmlns="http://www.w3.org/2000/svg" viewBox="0 0 16 16">
  <path d="m11,3.5c0,.14-.03.28-.14.36-.11.11-.22.16-.36.16h-.99v8.02h.99c.14,0,.25.06.36.16.11.08.14.22.14.36s-.03.25-.14.33l-2.01,2.03c-.11.08-.22.14-.36.14s-.25-.06-.36-.14l-2.01-2.03c-.11-.08-.14-.19-.14-.33s.03-.27.14-.36c.11-.11.22-.16.36-.16h.99V4.02h-.99c-.14,0-.25-.06-.36-.16-.11-.08-.14-.22-.14-.36s.03-.25.14-.33l2.01-2.03c.11-.08.22-.14.36-.14s.25.05.36.14l2.01,2.03c.11.08.14.19.14.33Z"/>
</svg>