<svg viewBox="0 0 16 16" xmlns="http://www.w3.org/2000/svg" id="icon-arrows-up-down"><path d="M10.5 9c-.4 0-.776.155-1.06.438l-.44.44V6.12l.44.44c.284.283.66.439 1.06.439.401 0 .779-.156 1.061-.44.283-.284.439-.661.439-1.061 0-.401-.156-.778-.44-1.06l-2.984-2.98a1.476 1.476 0 0 0-.495-.34 1.492 1.492 0 0 0-1.646.32l-2.996 3A1.49 1.49 0 0 0 3 5.5c0 .401.156.778.441 1.061.283.282.66.438 1.06.438s.778-.157 1.06-.44L6 6.12v3.758l-.438-.438a1.49 1.49 0 0 0-1.06-.442c-.4 0-.777.156-1.06.439-.286.283-.442.66-.442 1.061 0 .4.156.777.439 1.06l2.994 2.998c.14.142.281.218.347.252a1.475 1.475 0 0 0 1.792-.265l2.988-2.983c.284-.283.44-.66.44-1.06a1.49 1.49 0 0 0-.438-1.06 1.49 1.49 0 0 0-1.061-.441Zm.353 1.853-2.987 2.983A.495.495 0 0 1 7.5 14a.488.488 0 0 1-.236-.067c-.043-.023-.087-.046-.122-.082l-2.996-3a.5.5 0 1 1 .708-.705L7 12.294v-8.59L4.854 5.853a.5.5 0 0 1-.708-.707l2.996-3a.5.5 0 0 1 .715.009l2.996 2.99a.5.5 0 1 1-.706.708L8 3.71v8.58l2.147-2.144a.5.5 0 1 1 .706.707Z"/></svg>