<?xml version="1.0" encoding="UTF-8"?>
<svg id="icon-bin" xmlns="http://www.w3.org/2000/svg" viewBox="0 0 16 16">
  <path d="m11.38,6.73c.17-.17.44-.15.59,0,.16.16.17.42,0,.58,0,0,0,0,0,0l-3.83,3.83c-.15.15-.42.17-.59,0-.15-.15-.15-.44,0-.59l3.83-3.83Zm-1.47-1.47c.17-.17.44-.15.59,0,.16.16.17.42,0,.58,0,0,0,0,0,0l-3.83,3.83c-.15.15-.42.17-.59,0-.15-.15-.15-.44,0-.59l3.83-3.83Zm-1.47-1.47c.17-.17.44-.15.59,0,.16.16.17.42,0,.58,0,0,0,0,0,0l-3.83,3.83c-.15.15-.42.17-.59,0-.15-.15-.15-.44,0-.59l3.83-3.83ZM1.58,10.74l.33-1.69-1.29-1.29c-.24-.25-.24-.64,0-.88.24-.24.63-.25.87-.01,0,0,0,0,.01.01l.15.15L7.25,1.43c.83-.83,2.14-.81,2.95,0l4.12,4.12c.81.79.83,2.09.04,2.91-.01.01-.03.03-.04.04l-5.6,5.6.15.15c.24.23.26.61.03.85-.01.01-.02.02-.03.03-.24.24-.63.25-.87.01,0,0,0,0-.01-.01l-1.27-1.27-1.69.33c-.48.09-.98-.06-1.33-.41l-1.71-1.71c-.35-.35-.5-.87-.41-1.33h0Zm4.07,2.04l-2.67-2.67-.17.87c-.02.07,0,.15.06.2l1.71,1.71c.05.05.13.07.2.05l.87-.17h0Zm7.79-5.17c.33-.33.33-.85,0-1.18l-4.12-4.12c-.31-.31-.85-.33-1.18,0L2.54,7.91l5.3,5.3,5.6-5.6Z"/>
</svg>