<?xml version="1.0" encoding="UTF-8"?>
<svg id="icon-bin" xmlns="http://www.w3.org/2000/svg" viewBox="0 0 16 16">
  <path d="m13.69,3.09h-3.23v-1.48c0-.34-.28-.62-.62-.62h-3.69c-.34,0-.62.28-.62.62v1.48h-3.23c-.34,0-.62.28-.62.62s.28.62.62.62h.66v10.05c0,.34.28.62.62.62h8.82c.34,0,.62-.28.62-.62V4.35h.66c.34,0,.62-.28.62-.62s-.27-.63-.62-.63h0Zm-6.9-.84h2.43v.84h-2.43v-.84Zm5,11.51h-7.58V4.35h7.58v9.41Z"/>
  <path d="m5.99,12.37c.21,0,.37-.16.37-.37v-5.9c0-.21-.16-.37-.37-.37s-.37.16-.37.37v5.92c0,.19.18.35.37.35h0Z"/>
  <path d="m8,12.37c.21,0,.37-.16.37-.37v-5.9c0-.21-.16-.37-.37-.37s-.37.16-.37.37v5.92c0,.19.16.35.37.35h0Z"/>
  <path d="m10.01,12.37c.21,0,.37-.16.37-.37v-5.9c0-.21-.16-.37-.37-.37s-.37.16-.37.37v5.92c0,.19.16.35.37.35h0Z"/>
</svg>