<?xml version="1.0" encoding="UTF-8"?>
<svg id="icon-cogs" xmlns="http://www.w3.org/2000/svg" viewBox="0 0 16 16">
  <path d="m5.1,11.2c.17.07.25.27.18.44-.07.17-.27.25-.44.18-.15-.06-.3-.13-.44-.21l-.2-.11-1.08.94c-.13.12-.33.11-.46-.02l-1.29-1.29c-.13-.13-.13-.34,0-.47l.93-1.07c-.12-.21-.23-.43-.33-.66-.09-.22-.17-.46-.23-.7l-1.43-.1c-.18-.01-.31-.16-.31-.34v-1.82c0-.19.15-.34.33-.34l1.41-.1c.06-.24.14-.47.23-.7.09-.23.21-.45.33-.66l-.94-1.08c-.12-.13-.11-.33.02-.46l1.29-1.29c.13-.13.34-.13.47,0l1.07.93c.21-.12.43-.23.66-.33.22-.09.46-.17.7-.23l.1-1.43c.01-.18.16-.31.34-.31h1.82c.19,0,.34.15.34.33l.1,1.41c.24.06.47.14.7.23.23.1.45.21.66.33l1.08-.94c.13-.12.33-.11.46.01l1.29,1.29c.13.13.13.34,0,.47l-.93,1.07.12.22c.07.14.14.28.2.42.07.17,0,.37-.18.44-.17.07-.37,0-.44-.18-.05-.13-.11-.25-.17-.37v-.02c-.08-.13-.15-.25-.23-.37-.08-.12-.07-.29.03-.41l.9-1.03-.84-.84-1.01.88c-.11.11-.29.13-.42.05-.24-.16-.5-.3-.77-.41-.26-.11-.53-.19-.81-.25-.15-.03-.27-.15-.28-.31l-.09-1.36h-1.19l-.09,1.36c0,.15-.12.28-.27.31-.29.06-.56.15-.83.26-.27.11-.53.25-.77.41-.12.08-.29.07-.41-.03l-1.03-.9-.84.84.88,1.01c.11.11.13.29.05.42-.16.24-.3.5-.41.77-.11.26-.19.53-.25.82-.03.15-.15.27-.31.28l-1.36.09v1.19l1.36.09c.15,0,.28.12.31.27.06.29.15.56.26.83.11.27.25.52.41.77.08.12.07.29-.03.41l-.9,1.03.84.84,1.01-.88c.11-.11.29-.13.42-.05.12.08.23.14.34.2h.02c.13.08.25.14.38.19h0Zm.42-2.67c.14.12.16.33.04.47s-.33.16-.47.04c-.31-.26-.56-.59-.73-.96-.17-.36-.26-.76-.26-1.18,0-.78.32-1.48.82-1.99l.02-.02c.51-.5,1.2-.81,1.97-.81.42,0,.82.09,1.18.26.37.17.7.42.96.73.12.14.1.35-.04.47-.14.12-.35.1-.47-.04-.2-.23-.45-.43-.73-.56-.27-.13-.58-.2-.9-.2-.58,0-1.11.23-1.5.61v.02c-.4.39-.64.92-.64,1.51,0,.32.07.62.19.89.13.28.32.53.55.73h0Zm4.65-2.84h1.34c.19,0,.34.15.34.33l.07.96c.16.04.31.1.46.16.15.06.3.13.44.22l.74-.65c.13-.12.33-.11.46.01l.94.94c.13.13.13.34,0,.47l-.64.73c.08.14.15.29.22.44v.02c.07.14.12.29.16.44l.98.07c.18.01.31.16.31.34v1.34c0,.19-.15.34-.33.34l-.96.07c-.04.16-.1.31-.16.46-.06.15-.13.3-.22.44l.65.74c.12.13.11.33-.01.46l-.94.94c-.13.13-.34.13-.47,0l-.73-.64c-.14.08-.29.15-.44.21-.15.06-.3.12-.46.16l-.07.98c-.01.18-.16.31-.34.31h-1.34c-.19,0-.34-.15-.34-.33l-.07-.96c-.16-.04-.31-.1-.46-.16-.15-.06-.3-.13-.44-.21l-.74.65c-.13.12-.33.11-.46-.02l-.95-.94c-.13-.13-.13-.34,0-.48l.63-.72c-.08-.14-.15-.29-.22-.44-.06-.15-.12-.3-.16-.46l-.98-.07c-.18-.01-.31-.16-.31-.34v-1.34c0-.19.15-.34.33-.34l.96-.07c.04-.15.1-.31.16-.45.06-.15.14-.3.22-.45l-.65-.74c-.12-.13-.11-.33.02-.46l.94-.94c.13-.13.34-.13.47,0l.73.64c.14-.08.29-.15.44-.22.15-.06.3-.12.46-.16l.07-.98c.01-.18.16-.31.34-.31h0Zm.34.67h-.02l-.06.92c0,.15-.12.28-.27.31-.2.04-.4.1-.59.18-.19.08-.38.18-.55.29-.12.08-.29.07-.41-.03l-.69-.6-.5.5.59.68c.11.11.13.29.04.42h0c-.11.18-.21.37-.28.55-.07.18-.13.37-.18.57-.03.15-.15.27-.31.28l-.92.06v.71l.92.06c.15,0,.28.12.31.27.04.2.1.4.18.59.08.19.18.38.29.55.08.12.07.29-.03.41l-.6.69.5.5.67-.59c.11-.11.29-.13.42-.05.17.11.36.21.55.29.19.08.38.14.58.18.15.03.27.15.28.31l.06.92h.71l.06-.92c0-.15.12-.28.27-.31.2-.04.4-.1.59-.18.19-.08.38-.18.55-.29.12-.08.29-.07.41.03l.69.6.5-.5-.59-.67c-.11-.11-.13-.29-.05-.42.11-.17.21-.36.29-.55.08-.18.14-.38.18-.58.03-.15.15-.27.31-.28l.92-.06v-.71l-.92-.06c-.15,0-.28-.12-.31-.27-.04-.2-.1-.39-.18-.58v-.02c-.09-.19-.18-.38-.3-.55-.08-.12-.07-.29.03-.41l.6-.69-.5-.5-.67.59c-.11.11-.29.13-.42.05-.17-.11-.36-.21-.55-.29-.19-.08-.38-.14-.58-.18-.15-.03-.27-.15-.28-.31l-.06-.92h-.68Zm.33,2.33c.59,0,1.13.24,1.52.63.39.39.63.93.63,1.52s-.24,1.13-.63,1.52-.93.63-1.52.63-1.13-.24-1.52-.63l-.02-.02c-.38-.39-.61-.92-.61-1.5s.24-1.13.63-1.52c.39-.39.93-.63,1.52-.63h0Zm1.05,1.11c-.27-.27-.64-.43-1.05-.43s-.78.17-1.05.43c-.27.27-.43.64-.43,1.05s.16.77.42,1.03h.02c.27.28.64.45,1.05.45s.78-.17,1.05-.43c.27-.27.43-.64.43-1.05s-.17-.78-.43-1.05h0Z"/>
</svg>