<?xml version="1.0" encoding="UTF-8"?>
<svg id="icon-cogs" xmlns="http://www.w3.org/2000/svg" viewBox="0 0 16 16">
  <path d="m15.96,4.73c-.42-.14-.67-.44-.67-.65s.25-.51.67-.65c.03-.01.05-.04.04-.08-.09-.42-.25-.81-.49-1.17-.02-.03-.05-.04-.08-.02-.35.17-.77.17-.93.01-.17-.17-.16-.57.01-.93.01-.03,0-.07-.02-.08-.36-.24-.75-.4-1.17-.49-.03,0-.07.01-.08.04-.14.42-.44.67-.65.67s-.51-.25-.65-.67c-.01-.03-.04-.05-.08-.04-.42.09-.81.25-1.17.49-.03.02-.04.05-.02.08.17.35.18.76.01.93-.16.16-.58.16-.93-.01-.03-.01-.07,0-.08.02-.24.36-.4.75-.49,1.17,0,.03.01.07.04.08.42.14.67.44.67.65s-.25.51-.67.65c-.03.01-.05.04-.04.08.09.42.25.81.49,1.17.02.03.05.04.08.02.35-.17.77-.17.93-.01.17.17.16.57-.01.93-.01.03,0,.07.02.08.36.24.75.4,1.17.49.03,0,.07-.01.08-.04.14-.42.44-.67.65-.67s.51.25.65.67c0,.03.04.04.06.04,0,0,.01,0,.01,0,.42-.09.81-.25,1.17-.49.03-.02.04-.05.02-.08-.17-.35-.18-.76-.01-.93.16-.16.58-.16.93.01.03.01.07,0,.08-.02.24-.36.4-.75.49-1.17,0-.03-.01-.07-.04-.08Zm-3.36.93c-.87,0-1.58-.71-1.58-1.58s.7-1.58,1.58-1.58,1.58.71,1.58,1.58c0,.87-.71,1.58-1.58,1.58Z"/>
  <path d="m10.7,9.25l-.62-.06c-.1-.01-.19-.1-.21-.2-.04-.2-.09-.39-.15-.58-.03-.09,0-.22.08-.28l.51-.36c.07-.05.09-.13.06-.21-.06-.16-.12-.29-.2-.42-.07-.12-.16-.25-.27-.38-.05-.06-.14-.09-.21-.05l-.57.26c-.09.04-.21.01-.28-.06-.13-.15-.27-.29-.42-.42-.08-.07-.11-.19-.06-.28l.25-.57c.03-.07.01-.16-.05-.21-.13-.11-.25-.19-.38-.27-.12-.07-.26-.14-.42-.2-.08-.03-.16,0-.21.06l-.36.51c-.06.08-.18.12-.28.08-.19-.06-.38-.11-.58-.15-.1-.02-.19-.11-.2-.21l-.06-.62c0-.08-.07-.15-.15-.16-.34-.05-.59-.05-.93,0-.08.01-.14.08-.15.16l-.06.62c0,.1-.1.19-.2.21-.2.04-.39.09-.58.15-.09.03-.22,0-.28-.08l-.36-.51c-.05-.07-.13-.09-.21-.06-.16.06-.3.13-.42.2-.12.07-.25.16-.38.27-.06.05-.08.14-.05.21l.26.57c.04.09.01.21-.06.28-.15.13-.29.27-.42.42-.07.08-.19.1-.28.06l-.57-.26c-.08-.03-.16-.01-.21.05-.11.13-.19.26-.27.38-.07.13-.14.26-.2.42-.03.08,0,.16.06.21l.51.36c.08.06.12.18.08.28-.06.19-.12.38-.15.58-.02.1-.11.19-.21.2l-.62.06c-.08,0-.15.07-.16.15-.03.17-.04.32-.04.46s.01.3.04.47c.01.08.08.14.16.15l.62.06c.1.01.19.1.21.2.04.2.09.39.15.58.03.09,0,.22-.08.28l-.51.36c-.07.05-.09.13-.06.21.06.16.13.3.2.42.07.13.16.25.27.38.04.04.09.07.14.07.03,0,.05,0,.07-.01l.57-.25c.09-.04.22-.01.28.06.13.15.27.29.42.42.07.07.1.19.06.28l-.26.57c-.03.08-.01.16.05.21.13.11.26.19.38.27.13.07.27.14.42.2.02,0,.04.01.06.01.06,0,.11-.03.15-.08l.36-.5c.06-.08.18-.12.28-.08.19.06.38.11.58.15.1.02.19.11.2.21l.06.62c0,.08.07.15.15.16.17.03.32.04.46.04s.3-.01.47-.04c.08-.01.14-.08.15-.16l.06-.62c.01-.1.1-.19.2-.21.2-.04.39-.09.58-.15.09-.03.22,0,.27.09l.36.5s.09.08.15.08c.02,0,.04,0,.07-.01.16-.06.3-.12.42-.2.13-.07.25-.16.38-.27.06-.05.08-.14.05-.21l-.26-.57c-.04-.09-.01-.21.06-.28.15-.13.29-.27.42-.42.07-.08.19-.11.28-.06l.57.25s.05.02.07.02c.05,0,.1-.02.14-.07.11-.13.19-.26.27-.38.07-.12.14-.26.2-.42.03-.08,0-.16-.06-.21l-.51-.36c-.08-.06-.12-.18-.08-.28.06-.19.11-.38.15-.58.02-.1.11-.19.21-.2l.62-.06c.08,0,.15-.07.16-.15.03-.17.04-.32.04-.47s-.01-.29-.04-.46c-.01-.08-.08-.14-.16-.15h0Zm-5.25,3.77c-1.74,0-3.15-1.41-3.15-3.15s1.41-3.15,3.15-3.15,3.15,1.41,3.15,3.15-1.41,3.15-3.15,3.15Z"/>
  <path d="m5.45,7.84c-1.12,0-2.03.91-2.03,2.03s.91,2.03,2.03,2.03,2.03-.91,2.03-2.03-.91-2.03-2.03-2.03Z"/>
</svg>