<?xml version="1.0" encoding="UTF-8"?>
<svg id="icon-folder-open-inverse" xmlns="http://www.w3.org/2000/svg" viewBox="0 0 16 16">
  <path d="m15.93,7.98c-.06-.08-.16-.13-.27-.13h-1.32V3.25c0-.49-.4-.9-.9-.9h-5.7l-.29-.78h0c-.13-.35-.47-.59-.84-.59H2.56c-.5,0-.9.4-.9.9v4.59H.34c-.1,0-.2.05-.26.13-.06.08-.09.18-.07.28l1.52,7.16h0c.12.55.61.95,1.17.95h10.64c.55,0,1.02-.37,1.16-.9l1.49-5.83c.03-.1,0-.21-.06-.29h0ZM3.02,4.06c0-.19.15-.34.34-.34h9.27c.19,0,.34.15.34.34v3.79h-5.4l-.55-1.17c-.06-.12-.18-.2-.31-.2h-3.7v-2.43Z"/>
</svg>