<?xml version="1.0" encoding="UTF-8"?>
<svg id="icon-folder-open-inverse" xmlns="http://www.w3.org/2000/svg" viewBox="0 0 16 16">
  <path d="m16.87,6.49c-.11-.13-.26-.21-.44-.21h-.97V1.91c0-.3-.25-.57-.57-.57H1.11c-.3,0-.57.25-.57.57v2.44H-.43c-.17,0-.32.08-.44.21-.11.13-.15.3-.13.45L.62,14.21c.04.26.28.45.55.45h13.68c.26,0,.49-.19.55-.44l1.59-7.28c.04-.15,0-.32-.11-.45h0ZM1.66,2.46h12.69v3.81H6.3l-.61-1.57c-.08-.21-.28-.36-.53-.36H1.66v-1.88Zm12.73,11.1H1.64L.24,5.47h4.55l.61,1.57c.08.21.28.36.53.36h9.83l-1.36,6.16Z"/>
</svg>