<?xml version="1.0" encoding="UTF-8"?>
<svg id="icon-help" xmlns="http://www.w3.org/2000/svg" viewBox="0 0 16 16">
  <path d="m8,0C5.88,0,3.84.84,2.34,2.34.84,3.84,0,5.88,0,8s.84,4.16,2.34,5.66c1.5,1.5,3.54,2.34,5.66,2.34s4.16-.84,5.66-2.34c1.5-1.5,2.34-3.54,2.34-5.66s-.84-4.16-2.34-5.66C12.16.84,10.12,0,8,0Zm0,14.06c-1.61,0-3.16-.64-4.31-1.79-1.14-1.14-1.78-2.69-1.78-4.31,0-1.61.65-3.16,1.79-4.3,1.14-1.14,2.69-1.78,4.31-1.77,1.61,0,3.16.65,4.3,1.8,1.14,1.15,1.77,2.7,1.77,4.31,0,1.61-.64,3.16-1.78,4.3-1.14,1.14-2.69,1.78-4.3,1.78v-.02Z"/>
  <path d="m9.77,4.86c-.54-.37-1.19-.55-1.84-.53-.51-.02-1.01.12-1.44.38-.62.4-.95,1.06-.98,1.99h1.44c0-.28.09-.56.24-.79.18-.27.49-.41.81-.38.38,0,.65.1.79.31.15.2.22.45.22.69,0,.22-.07.42-.19.6-.08.11-.18.21-.29.29l-.36.29c-.28.19-.51.44-.67.74-.11.37-.17.76-.17,1.15h1.34c0-.19.02-.39.07-.57.06-.22.18-.41.36-.55l.36-.26c.27-.19.51-.42.72-.67.22-.32.32-.7.31-1.08.05-.62-.22-1.23-.72-1.61h0Z"/>
  <path d="m7.31,10.25h1.48v1.43h-1.48v-1.43Z"/>
</svg>