<?xml version="1.0" encoding="UTF-8"?>
<svg id="icon-image" xmlns="http://www.w3.org/2000/svg" viewBox="0 0 16 16">
  <path d="m0,0v16h16V0H0Zm1.14,1.14h13.71v8.33l-4-4-4.57,4.57-2.29-2.29-2.86,2.86V1.14Zm5.14,2.29c-.94,0-1.71.77-1.71,1.71s.77,1.71,1.71,1.71,1.71-.77,1.71-1.71-.77-1.71-1.71-1.71Zm0,1.14c.32,0,.57.25.57.57s-.25.57-.57.57-.57-.25-.57-.57.25-.57.57-.57Zm4.57,2.52l4,4v3.76H1.14v-2.62l2.86-2.86,2.29,2.29,4.57-4.57Z"/>
  <path d="m14.53,1.91v12.61H1.92V1.91h12.61m1-1H.92v14.61h14.61V.91h0Z"/>
</svg>