<?xml version="1.0" encoding="UTF-8"?>
<svg id="icon-kausal-dimensions" xmlns="http://www.w3.org/2000/svg" viewBox="0 0 16 16">
  <path d="m8.81.17c2.09,1.16,3.72,2.09,5.57,3.25.46.23.7.46.7,1.16v6.73c0,.46-.23.93-.7,1.16-2.09,1.16-3.48,2.09-5.57,3.25-.7.23-.93.46-1.63,0-2.09-1.16-3.72-2.09-5.57-3.25-.46-.23-.7-.46-.7-1.16v-6.73c0-.46.23-.7.7-1.16C3.7,2.26,5.33,1.34,7.42.17c.46-.23.93-.23,1.39,0Zm-.23,8.13v6.27c1.86-1.16,3.72-2.09,5.34-3.25v-6.27l-5.34,3.25Zm-.93,6.27v-6.27l-5.34-3.25v6.27c1.86,1.16,3.72,2.09,5.34,3.25ZM2.78,4.35l5.34,3.25,5.34-3.25c-1.86-1.16-3.72-2.09-5.34-3.25-1.86,1.16-3.72,2.09-5.34,3.25Z"/>
</svg>