<?xml version="1.0" encoding="UTF-8"?>
<svg id="icon-kausal-spreadsheets" xmlns="http://www.w3.org/2000/svg" viewBox="0 0 16 16">
  <path d="m11.93,12.75h.52v2.25h-3.14v-.59l-.66.12v.47h-3.47v-2.25h.57l.1-.66h-.67v-2.29h1.18l.65-.66h-1.82v-2.29h3.47v.62l1.26-1.28h-.6v-2.25h4.14V0H.06v16h13.4v-4.68l-1.52,1.43ZM9.31,1h3.14v2.28h-3.14V1Zm-4.13,0h3.47v2.28h-3.47V1Zm0,2.94h3.47v2.25h-3.47v-2.25Zm-.66,11.06H1.06v-2.25h3.47v2.25Zm0-2.91H1.06v-2.29h3.47v2.29Zm0-2.95H1.06v-2.29h3.47v2.29Zm0-2.95H1.06v-2.25h3.47v2.25Zm0-2.91H1.06V1h3.47v2.28Z"/>
  <path d="m15.41,5.63l-.6-.6c-.71-.71-1.86-.71-2.57,0l-5.09,5.09c-.23.23-.39.53-.46.86l-.54,2.68c-.04.18.01.37.15.49.11.11.25.16.38.16.04,0,.07,0,.11-.01l2.68-.54c.33-.07.61-.22.86-.46l5.09-5.09c.34-.34.53-.8.53-1.28,0-.48-.19-.95-.53-1.29h0Zm-3.13.6l.67.67-4.46,4.46-.67-.67,4.46-4.46Zm-4.63,7.01l-.45-.45.25-1.22,1.41,1.41-1.21.26Zm2.1-.6l-.67-.67,4.46-4.46.67.67-4.46,4.46Zm5.08-5.09l-1.95-1.95c.18-.16.39-.25.64-.25.26,0,.49.1.67.27l.6.6c.18.18.27.42.27.67.01.26-.07.49-.23.65h0Z"/>
</svg>