<?xml version="1.0" encoding="UTF-8"?>
<svg id="icon-kausal-categories" xmlns="http://www.w3.org/2000/svg" viewBox="0 0 16 16">
  <path d="m13.82,7.94c.25,0,.45-.2.45-.45,0-.11-.04-.2-.1-.28L10.13.22c-.08-.14-.23-.22-.39-.22s-.31.09-.39.22l-2.22,3.84H2.18c-.25,0-.45.2-.45.45v7.15c0,.25.2.45.45.45h2.64c.25,2.2,2.12,3.89,4.36,3.89,2.42,0,4.39-1.97,4.39-4.39,0-1.53-.79-2.88-1.98-3.67h2.23,0Zm-11.19,3.27v-6.26h3.99l-1.33,2.31c-.08.14-.08.31,0,.45.08.14.23.22.39.22h3.04v3.27H2.63Zm10.05.39c0,1.93-1.57,3.49-3.49,3.49-1.75,0-3.21-1.29-3.46-2.99h3.44c.25,0,.45-.2.45-.45v-3.52c1.72.21,3.06,1.68,3.06,3.46h0Zm-6.23-4.56l3.29-5.71,3.3,5.71h-6.59Z"/>
</svg>