<?xml version="1.0" encoding="UTF-8"?>
<svg id="icon-kausal-attributes" xmlns="http://www.w3.org/2000/svg" viewBox="0 0 16 16">
  <path d="m15.48,6.64l-2.9-3.23c-.39-.42-.93-.67-1.5-.67H2.02c-1.11,0-2.02.91-2.02,2.02v6.49c0,1.11.91,2.02,2.02,2.02h9.06c.57,0,1.13-.25,1.5-.67l2.9-3.25c.69-.78.69-1.92,0-2.7Zm-.72,2.04l-2.91,3.23c-.2.22-.47.34-.76.34H2.02c-.57,0-1.03-.45-1.03-1.03v-6.47c0-.57.45-1.03,1.03-1.03h9.06c.29,0,.57.12.76.34l2.9,3.23c.35.39.35.99.02,1.38h0Z"/>
  <path d="m13.24,7.99c0,.59-.48,1.06-1.06,1.06s-1.06-.48-1.06-1.06.48-1.06,1.06-1.06,1.06.48,1.06,1.06"/>
  <path d="m9.38,5.01H2.86c-.32,0-.59.27-.59.59v4.78c0,.32.27.59.59.59h6.52c.32,0,.59-.27.59-.59v-4.78c0-.32-.25-.59-.59-.59Zm-1.31,4.5h-3.87c-.27,0-.49-.22-.49-.49s.22-.49.49-.49h3.87c.27,0,.49.22.49.49,0,.27-.22.49-.49.49Zm0-2.04h-3.87c-.27,0-.49-.22-.49-.49s.22-.49.49-.49h3.87c.27,0,.49.22.49.49,0,.27-.22.49-.49.49Z"/>
</svg>