<?xml version="1.0" encoding="UTF-8"?>
<svg id="icon-kausal-spreadsheets" xmlns="http://www.w3.org/2000/svg" viewBox="0 0 16 16">
  <path d="m12.77,3.09V0H-.34v16h13.11v-6.53l3.58-3.58-3.19-3.19-.38.38Zm-4.85,7.58l.46.46-.63.16.16-.63Zm1.82-.18l-1.17-1.19,1.9-1.9h.06v-.06l1.15-1.15,1.19,1.19-3.13,3.11Zm1.62,4.1H1.07V1.41h10.28v3.09l-1.47,1.47h-4.71v1.41h3.29l-1.21,1.21h-2.08v1.41h1.45l-.32,1.21h-1.13v1.41h.77l-.18.65,4.36-1.17,1.23-1.23v3.7Zm2.53-8.22l-1.19-1.19.46-.46,1.19,1.19-.46.46Z"/>
  <path d="m1.94,3.35h2.53v1.41H1.94v-1.41Z"/>
  <path d="m5.17,3.35h5.35v1.41h-5.35v-1.41Z"/>
  <path d="m1.94,5.98h2.53v1.41H1.94v-1.41Z"/>
  <path d="m1.94,8.61h2.53v1.41H1.94v-1.41Z"/>
  <path d="m1.94,11.23h2.53v1.41H1.94v-1.41Z"/>
</svg>