<?xml version="1.0" encoding="UTF-8"?>
<svg id="icon-kausal-plans" xmlns="http://www.w3.org/2000/svg" viewBox="0 0 16 16">
  <path d="m13.75,2.21h-2.94v-.16c0-.26-.21-.47-.47-.47h-.74v-.05c0-.84-.72-1.55-1.58-1.55s-1.65.74-1.67,1.59h-.7c-.26,0-.47.21-.47.47v.16h-2.94c-.34,0-.62.28-.62.62v12.55c0,.34.28.62.62.62h11.5c.34,0,.62-.28.62-.62V2.83c0-.34-.28-.62-.62-.62h0Zm-5.73-1.28c.35,0,.65.29.65.62v.05h-1.39c.02-.35.35-.66.74-.66h0Zm-1.9,1.59h3.76v1.08h-3.76v-1.08Zm7.01,12.24H2.87V3.45h2.32v.62c0,.26.21.47.47.47h4.69c.26,0,.47-.21.47-.47v-.62h2.32v11.31h0ZM6.49,5.7c.18.18.18.48,0,.66l-1.42,1.42c-.09.09-.21.14-.33.14s-.24-.05-.33-.14l-.57-.57c-.18-.18-.18-.48,0-.66.18-.18.48-.18.66,0l.24.24,1.09-1.09c.18-.18.48-.18.66,0Zm1.1,1.01h4.34c.26,0,.47.21.47.47s-.21.47-.47.47h-4.34c-.26,0-.47-.21-.47-.47,0-.26.21-.46.47-.46Zm-1.1,1.67c.18.18.18.48,0,.66l-1.42,1.42c-.09.09-.21.14-.33.14s-.24-.05-.33-.14l-.57-.57c-.18-.18-.18-.48,0-.66.18-.18.48-.18.66,0l.24.24,1.09-1.09c.18-.18.48-.18.66,0Zm5.9,1.47c0,.26-.21.47-.47.47h-4.34c-.26,0-.47-.21-.47-.47s.21-.47.47-.47h4.34c.26,0,.47.21.47.47Zm-5.9,1.21c.18.18.18.48,0,.66l-1.42,1.42c-.09.09-.21.14-.33.14s-.24-.05-.33-.14l-.57-.57c-.18-.18-.18-.48,0-.66.18-.18.48-.18.66,0l.25.24,1.09-1.09c.18-.18.48-.18.66,0Zm5.9,1.46c0,.26-.21.47-.47.47h-4.34c-.26,0-.47-.21-.47-.47s.21-.47.47-.47h4.34c.26,0,.47.21.47.47Z"/>
</svg>