<?xml version="1.0" encoding="UTF-8"?>
<svg id="icon-kausal-plans" xmlns="http://www.w3.org/2000/svg" viewBox="0 0 16 16">
  <path d="m3,16h7.11c.19,0,.34-.07.48-.2l2.88-2.89c.13-.13.19-.28.2-.48V2.24c0-.37-.3-.67-.67-.67h-2.21c.03-.29,0-.79,0-1.1,0-.62-1.11-.62-1.11,0,0,.31-.03.81,0,1.1h-1.14c.03-.29,0-.79,0-1.1,0-.62-1.11-.62-1.11,0,0,.31-.03.81,0,1.1h-1.14c.03-.29,0-.79,0-1.1,0-.62-1.11-.62-1.11,0,0,.31-.03.81,0,1.1h-2.21c-.37,0-.67.3-.67.67v13.09c0,.37.3.67.67.67h0Zm4.38-5.17c-.3,0-.54-.24-.54-.54s.24-.54.54-.54h3.57c.7,0,.7,1.07,0,1.07h-3.57Zm-2.72-1.36h1.71v1.66h-1.71v-1.66Zm2.72-1.36c-.3,0-.54-.24-.54-.54s.24-.54.54-.54h3.57c.7,0,.7,1.07,0,1.07h-3.57Zm-2.72-1.36h1.71v1.66h-1.71v-1.66Zm2.72-1.36c-.3,0-.54-.24-.54-.54s.24-.54.54-.54h3.57c.7,0,.7,1.07,0,1.07h-3.57Zm-2.72-1.36h1.71v1.66h-1.71v-1.66Zm6.13,9.7v-.58h.58l-.58.58Zm-1.35.95H3.68V2.91h8.64v8.85h-2.21c-.37,0-.67.3-.67.67v2.21Z"/>
</svg>