<?xml version="1.0" encoding="UTF-8"?>
<svg id="icon-kausal-organisations" xmlns="http://www.w3.org/2000/svg" viewBox="0 0 16 16">
  <path d="m2.86,5.14c-.76,0-1.48.3-2.02.84C.3,6.52,0,7.24,0,8s.3,1.48.84,2.02c.54.54,1.26.84,2.02.84s1.48-.3,2.02-.84c.54-.54.84-1.26.84-2.02,0-.76-.3-1.48-.84-2.02s-1.26-.84-2.02-.84h0Zm0,4.57c-.69,0-1.32-.42-1.58-1.06-.27-.64-.12-1.38.37-1.87.49-.49,1.23-.64,1.87-.37.64.26,1.06.89,1.06,1.58,0,.95-.77,1.71-1.71,1.71h0Z"/>
  <path d="m13.71,5.71c-.92,0-1.76.56-2.11,1.41-.35.85-.16,1.84.49,2.49.65.65,1.64.85,2.49.49.85-.35,1.41-1.19,1.41-2.11,0-1.26-1.02-2.28-2.29-2.29h0Zm0,3.43c-.46,0-.88-.28-1.06-.71-.18-.43-.08-.92.25-1.24.33-.33.82-.42,1.24-.25.43.18.71.59.71,1.06,0,.63-.51,1.14-1.14,1.14h0Z"/>
  <path d="m13.71,11.43c-.92,0-1.76.56-2.11,1.41-.35.85-.16,1.84.49,2.49.65.65,1.64.85,2.49.49.85-.35,1.41-1.19,1.41-2.11,0-1.26-1.02-2.28-2.29-2.29h0Zm0,3.43c-.46,0-.88-.28-1.06-.71-.18-.43-.08-.92.25-1.24.33-.33.82-.42,1.24-.25.43.18.71.59.71,1.06,0,.63-.51,1.14-1.14,1.14h0Z"/>
  <path d="m13.71,0C12.79,0,11.96.56,11.6,1.41c-.35.85-.16,1.84.49,2.49.65.65,1.64.85,2.49.49.85-.35,1.41-1.19,1.41-2.11,0-1.26-1.02-2.28-2.29-2.29h0Zm0,3.43c-.46,0-.88-.28-1.06-.71-.18-.43-.08-.92.25-1.24.33-.33.82-.42,1.24-.25.43.18.71.59.71,1.06,0,.63-.51,1.14-1.14,1.14h0Z"/>
  <path d="m10.29,2.86c.32,0,.57-.26.57-.57s-.26-.57-.57-.57h-1.71c-.32,0-.57.26-.57.57v5.14h-1.14c-.32,0-.57.26-.57.57s.26.57.57.57h1.14v5.14c0,.15.06.3.17.4.11.11.25.17.4.17h1.71c.32,0,.57-.26.57-.57s-.26-.57-.57-.57h-1.14v-4.57h1.14c.32,0,.57-.26.57-.57s-.26-.57-.57-.57h-1.14V2.86h1.14Z"/>
</svg>