<?xml version="1.0" encoding="UTF-8"?>
<svg id="icon-kausal-actions" xmlns="http://www.w3.org/2000/svg" viewBox="0 0 16 16">
  <path d="m8,1.16c3.77,0,6.84,3.07,6.84,6.84,0,3.77-3.07,6.84-6.84,6.84S1.16,11.77,1.16,8,4.23,1.16,8,1.16M8,0C3.58,0,0,3.58,0,8s3.58,8,8,8c4.42,0,8-3.58,8-8S12.42,0,8,0h0Zm0,7.19c.44,0,.81.36.81.81s-.36.81-.81.81-.81-.36-.81-.81.36-.81.81-.81m0-1.16c-1.09,0-1.97.88-1.97,1.97s.88,1.97,1.97,1.97,1.97-.88,1.97-1.97-.88-1.97-1.97-1.97h0Zm0-.9c1.67,0,3.35,1.73,4.22,2.87-.88,1.14-2.55,2.87-4.22,2.87s-3.35-1.73-4.22-2.87c.88-1.14,2.55-2.87,4.22-2.87m0-1.16c-3.12,0-5.64,4.04-5.64,4.04,0,0,2.53,4.04,5.64,4.04s5.64-4.04,5.64-4.04c0,0-2.53-4.04-5.64-4.04Z"/>
</svg>