<?xml version="1.0" encoding="UTF-8"?>
<svg id="icon-kausal-node" xmlns="http://www.w3.org/2000/svg" viewBox="0 0 16 16">
  <path d="m13.21,11.34c-.5.09-.93.32-1.26.66l-2.24-1.57c.14-.41.18-.85.1-1.31-.08-.46-.27-.86-.54-1.2l1.02-1.47c.35.16.76.22,1.17.14,1.11-.2,1.84-1.25,1.65-2.35s-1.25-1.84-2.35-1.65c-1.11.2-1.84,1.25-1.65,2.35.08.41.26.77.53,1.05l-.97,1.38c-.44-.29-.97-.46-1.53-.44l-.42-2.4c1.05-.38,1.72-1.47,1.52-2.61C8.02.67,6.8-.18,5.53.03s-2.12,1.45-1.9,2.72c.2,1.14,1.2,1.94,2.32,1.93l.42,2.4c-1.09.37-1.82,1.41-1.79,2.56l-.8.14c-.33-.83-1.23-1.36-2.14-1.2-1.06.19-1.77,1.2-1.58,2.26.19,1.05,1.2,1.77,2.26,1.58.93-.17,1.58-.96,1.61-1.86l.8-.14c.41,1.22,1.65,1.99,2.96,1.76.7-.12,1.28-.51,1.67-1.05l2.16,1.51c-.2.42-.28.91-.19,1.41.23,1.27,1.44,2.12,2.72,1.9,1.27-.23,2.12-1.44,1.9-2.72-.24-1.28-1.46-2.14-2.73-1.91h0Zm-2.31-7.96c.68-.12,1.32.33,1.44,1.01.11.68-.33,1.32-1.01,1.44-.2.04-.38.02-.56-.04-.26-.08-.49-.23-.65-.45-.11-.15-.2-.32-.23-.52-.12-.67.34-1.32,1.01-1.44h0Zm-7.79,7.33c-.08.47-.44.85-.93.93-.62.11-1.23-.31-1.34-.93-.11-.62.31-1.23.93-1.34.49-.08.96.15,1.2.56.07.11.12.24.14.38.02.14.02.28,0,.41h0Zm3.1-6.83c-.14.02-.27.03-.4.02-.68-.06-1.27-.56-1.4-1.27-.15-.84.41-1.65,1.26-1.8s1.65.41,1.8,1.26c.13.71-.26,1.38-.88,1.68-.11.05-.24.1-.38.12h0Zm7.68,11.3c-.84.15-1.65-.41-1.8-1.26-.05-.28-.02-.56.08-.8.09-.25.25-.47.45-.65.2-.17.45-.29.73-.35.84-.15,1.65.41,1.8,1.26s-.41,1.65-1.26,1.8h0Z"/>
</svg>