<?xml version="1.0" encoding="UTF-8"?>
<svg id="icon-kausal-indicators" xmlns="http://www.w3.org/2000/svg" viewBox="0 0 16 16">
  <path d="m8,0C3.58,0,0,3.58,0,8s3.6,8,8,8,8-3.6,8-8S12.42,0,8,0Zm0,14.15c-3.4,0-6.15-2.75-6.15-6.15S4.6,1.85,8,1.85s6.15,2.75,6.15,6.15-2.75,6.15-6.15,6.15ZM3.86,6.09c.12-.25.41-.36.66-.25.25.12.36.41.25.66-.08.16-.23.26-.38.28-.1.02-.18,0-.28-.05-.25-.1-.36-.4-.25-.64h0Zm7.32.46c-.12-.25,0-.54.25-.66s.54,0,.66.25,0,.54-.25.66c-.05.02-.1.03-.13.03-.21.03-.43-.08-.53-.28h0Zm.15,3.71c.21.18.23.49.05.71-.08.1-.2.15-.31.16-.13.02-.28-.02-.4-.12-.21-.18-.23-.49-.05-.71.2-.2.51-.23.71-.05h0Zm-3.84-6.3c0-.28.23-.49.51-.49s.49.23.49.49c0,.25-.18.46-.43.49h-.07c-.28.02-.51-.21-.51-.49h0Zm-2.19,6.33c.18.21.16.53-.05.71-.08.07-.16.1-.26.12-.16.02-.33-.03-.45-.16-.18-.21-.16-.53.05-.71.21-.18.54-.15.71.05Zm7.16-1.63c-.03.23-.21.4-.43.43h-.15c-.28-.03-.46-.3-.43-.56.03-.28.3-.46.56-.43.3.03.5.28.45.56h0Zm-8.4.4c-.28.03-.53-.15-.56-.43v-.03c-.03-.28.15-.53.43-.56.28-.03.53.15.56.43v.02c.03.28-.15.54-.43.58h0Zm2.18-4.73c.15.23.08.54-.15.69-.07.03-.13.07-.2.07-.18.03-.38-.05-.49-.23-.15-.23-.08-.54.15-.69.23-.13.54-.07.69.16h0Zm4.4.46c.12-.23.05-.51-.16-.66s-.51-.08-.68.12l-1.9,2.52c-.38.03-.73.23-.94.56-.36.58-.2,1.34.38,1.72.58.36,1.34.2,1.72-.38.21-.35.25-.74.12-1.11l1.47-2.77Zm-2.21,3.48c-.15.23-.46.3-.69.15-.23-.15-.3-.46-.15-.69.15-.23.46-.3.69-.15.23.15.3.46.15.69Z"/>
</svg>