<?xml version="1.0" encoding="UTF-8"?>
<svg id="icon-kausal-dataset" xmlns="http://www.w3.org/2000/svg" viewBox="0 0 16 16">
  <path d="m7.08,8.43h1.94c.19,0,.35-.16.35-.35s-.16-.35-.35-.35h-1.94c-.19,0-.35.16-.35.35s.16.35.35.35Zm-4.77,0h1.94c.19,0,.35-.16.35-.35s-.16-.35-.35-.35h-1.94c-.19,0-.35.16-.35.35s.16.35.35.35Zm4.77-2.13h1.94c.19,0,.35-.16.35-.35s-.16-.35-.35-.35h-1.94c-.19,0-.35.16-.35.35s.16.35.35.35Zm-4.77,0h1.94c.19,0,.35-.16.35-.35s-.16-.35-.35-.35h-1.94c-.19,0-.35.16-.35.35s.16.35.35.35Zm-.02-3.46h1.94c.19,0,.35-.16.35-.35s-.16-.35-.35-.35h-1.94c-.19,0-.35.16-.35.35-.02.19.14.35.35.35Zm9.58,3.46h1.94c.19,0,.35-.16.35-.35s-.16-.35-.35-.35h-1.94c-.19,0-.35.16-.35.35s.16.35.35.35Zm-.05-3.46h1.94c.19,0,.35-.16.35-.35s-.16-.35-.35-.35h-1.94c-.19,0-.35.16-.35.35s.16.35.35.35Zm.05,7.71h1.94c.19,0,.35-.16.35-.35s-.16-.35-.35-.35h-1.94c-.19,0-.35.16-.35.35s.16.35.35.35ZM15.37,0H.63c-.35,0-.63.28-.63.63v14.74c0,.35.28.63.63.63h14.74c.35,0,.63-.28.63-.63V.61C15.98.28,15.72,0,15.37,0h0ZM5.33,14.74H1.24V4.55h4.06v10.18h.02Zm0-10.91H1.24V1.24h4.06v2.59h.02Zm4.76,10.91h-4.06V4.55h4.06v10.18Zm0-10.91h-4.06V1.24h4.06v2.59Zm4.65,10.91h-3.95V4.55h3.95v10.18Zm0-10.91h-3.95V1.24h3.95v2.59Zm-7.66,6.73h1.94c.19,0,.35-.16.35-.35s-.16-.35-.35-.35h-1.94c-.19,0-.35.16-.35.35s.16.35.35.35Zm0,2.13h1.94c.19,0,.35-.16.35-.35s-.16-.35-.35-.35h-1.94c-.19,0-.35.16-.35.35s.16.35.35.35Zm4.79-4.25h1.94c.19,0,.35-.16.35-.35s-.16-.35-.35-.35h-1.94c-.19,0-.35.16-.35.35s.16.35.35.35ZM7.05,2.85h1.94c.19,0,.35-.16.35-.35s-.16-.35-.35-.35h-1.94c-.19,0-.35.16-.35.35s.16.35.35.35Z"/>
</svg>