<?xml version="1.0" encoding="UTF-8"?>
<svg id="icon-search" xmlns="http://www.w3.org/2000/svg" viewBox="0 0 16 16">
  <path d="m15.73,14.44l-4.38-4.38c1.84-2.47,1.64-5.98-.59-8.21C8.3-.61,4.3-.61,1.84,1.84s-2.46,6.45,0,8.91c2.24,2.24,5.75,2.43,8.21.59l4.38,4.38c.36.36.94.36,1.29,0,.36-.36.36-.94,0-1.29h0ZM2.7,9.89c-1.98-1.98-1.98-5.21,0-7.19,1.98-1.98,5.21-1.98,7.19,0,1.98,1.98,1.98,5.21,0,7.19-1.98,1.98-5.21,1.98-7.19,0Z"/>
  <path d="m2.38,6.71c-.2,0-.36-.16-.36-.36,0-2.33,1.89-4.22,4.22-4.22.2,0,.36.16.36.36s-.16.36-.36.36c-1.94,0-3.51,1.58-3.51,3.51,0,.2-.16.36-.36.36Z"/>
</svg>