<?xml version="1.0" encoding="UTF-8"?>
<svg id="icon-site" xmlns="http://www.w3.org/2000/svg" viewBox="0 0 16 16">
  <path d="m8,0C3.59,0,0,3.59,0,8s3.59,8,8,8,8-3.59,8-8S12.41,0,8,0Zm6.2,5.32h-2.11c-.41-1.4-1.14-2.7-2.15-3.79,1.92.57,3.48,1.98,4.27,3.79ZM1.24,8c0-.62.09-1.22.24-1.79h2.21c-.11.58-.17,1.18-.17,1.79s.06,1.21.17,1.79H1.49c-.16-.57-.24-1.17-.24-1.79h0Zm3.17,0c0-.61.07-1.21.19-1.79h2.95v3.59h-2.95c-.12-.58-.19-1.18-.19-1.79ZM8.44,1.33c1.28,1.08,2.21,2.46,2.71,3.99h-2.71V1.33Zm-.89,0v3.99h-2.71c.5-1.53,1.43-2.91,2.71-3.99Zm0,9.35v3.99c-1.29-1.08-2.21-2.46-2.71-3.99h2.71Zm.89,3.99v-3.99h2.71c-.5,1.53-1.43,2.91-2.71,3.99Zm0-4.88v-3.58h2.95c.12.58.19,1.18.19,1.79s-.07,1.21-.19,1.79h-2.95Zm3.86-3.58h2.21c.16.57.24,1.17.24,1.79s-.09,1.22-.24,1.79h-2.21c.11-.58.17-1.18.17-1.79s-.06-1.21-.17-1.79h0ZM6.06,1.53c-1.01,1.1-1.74,2.39-2.15,3.79H1.8c.79-1.81,2.35-3.22,4.26-3.79h0ZM1.8,10.68h2.11c.41,1.4,1.14,2.69,2.15,3.79-1.91-.57-3.48-1.98-4.26-3.79h0Zm8.13,3.79c1.01-1.1,1.74-2.39,2.15-3.79h2.11c-.79,1.81-2.35,3.22-4.27,3.79Z"/>
</svg>