<?xml version="1.0" encoding="UTF-8"?>
<svg xmlns="http://www.w3.org/2000/svg" viewBox="0 0 16 16">
  <g id="icon-user">
    <path d="m7.95,0C3.56,0-.01,3.57-.05,7.95c-.02,2.13.8,4.16,2.31,5.67,1.49,1.53,3.5,2.36,5.64,2.38h.05c4.39,0,7.96-3.57,8-7.95C15.99,3.64,12.41.04,7.95,0h0Zm-.04,14.91c-1.69-.02-3.27-.62-4.52-1.72v-.11c0-.84.25-1.62.71-2.31.43-.6,1-1.08,1.65-1.39.59.5,1.35.8,2.19.8s1.6-.3,2.19-.8c.66.3,1.23.78,1.65,1.39.46.68.71,1.48.71,2.31v.09c-1.23,1.07-2.83,1.72-4.57,1.72h-.02s0,.02,0,.02Zm.04-5.72c-1.3,0-2.36-1.07-2.36-2.36s1.07-2.38,2.36-2.38,2.36,1.07,2.36,2.36-1.07,2.38-2.36,2.38Zm5.51,2.99c-.12-.71-.41-1.37-.82-1.97-.46-.68-1.08-1.23-1.81-1.6.32-.52.52-1.14.52-1.78,0-1.87-1.53-3.4-3.4-3.4s-3.4,1.53-3.4,3.4c0,.66.18,1.26.52,1.78-.71.37-1.33.92-1.81,1.6-.41.6-.69,1.26-.82,1.97-.92-1.21-1.42-2.68-1.4-4.23.02-3.79,3.13-6.88,6.97-6.88,3.82.02,6.9,3.15,6.88,6.97-.02,1.56-.55,2.99-1.42,4.14h0Z"/>
  </g>
  <g id="icon-kausal-dimensions">
    <path d="m7.99,1.42h0c.1,0,.19,0,.29,0,1.76.08,3.38.83,4.56,2.13,1.19,1.3,1.8,2.98,1.72,4.73-.15,3.53-3.04,6.29-6.57,6.29-.1,0-.19,0-.29,0-1.76-.08-3.38-.83-4.56-2.13-1.19-1.3-1.8-2.98-1.72-4.73.15-3.53,3.04-6.29,6.57-6.29m0-1c-4.03,0-7.39,3.18-7.57,7.25-.18,4.18,3.06,7.72,7.24,7.9.11,0,.22,0,.33,0,4.03,0,7.39-3.18,7.57-7.25.18-4.18-3.06-7.72-7.24-7.9-.11,0-.22,0-.33,0h0Z"/>
  </g>
</svg>