<?xml version="1.0" encoding="UTF-8"?>
<svg id="icon-warning" xmlns="http://www.w3.org/2000/svg" viewBox="0 0 18 16">
  <path d="m16.81,13.03L10.15,1.66c-.53-.88-1.81-.88-2.31,0L1.16,13.03c-.5.88.12,1.97,1.16,1.97h13.34c.73,0,1.32-.58,1.33-1.3,0-.23-.06-.46-.17-.67h0Zm-8.56-7.78c0-.41.32-.74.73-.75,0,0,.01,0,.02,0,.41,0,.74.34.75.75v4c0,.41-.32.74-.73.75,0,0-.01,0-.02,0-.41,0-.74-.34-.75-.75v-4Zm.75,7.75c-.54.01-.99-.42-1-.96,0,0,0,0,0,0,0-.54.45-.98.99-.97,0,0,0,0,0,0,.53,0,.97.44.97.97,0,.53-.44.97-.97.97Z"/>
</svg>